<svg width="260" height="260" viewBox="0 0 260 260" fill="none" xmlns="http://www.w3.org/2000/svg">
<path d="M164.377 79.4019H95.1582V230.415H164.377V79.4019Z" fill="white" stroke="#333333" stroke-width="1.0402" stroke-miterlimit="10" stroke-linecap="round" stroke-linejoin="round"/>
<path d="M138.914 113.232H147.584V122.292" stroke="#333333" stroke-width="0.9659" stroke-miterlimit="10" stroke-linecap="round" stroke-linejoin="round"/>
<path d="M118.771 161.992H110.344V153.684" stroke="#333333" stroke-width="0.9659" stroke-miterlimit="10" stroke-linecap="round" stroke-linejoin="round"/>
<path d="M147.584 153.39V161.992H138.914" stroke="#333333" stroke-width="0.9659" stroke-miterlimit="10" stroke-linecap="round" stroke-linejoin="round"/>
<path d="M144.618 116.898H112.406V159.077H144.618V116.898Z" fill="#4F80FF"/>
<path d="M128.109 123.52C128.109 123.52 130.304 127.928 124.811 131.239C122.615 132.346 118.872 131.991 119.095 134.926C119.317 137.861 113.773 131.209 113.773 131.209C113.773 131.209 128.109 120.209 128.109 123.52Z" fill="white" stroke="#333333" stroke-width="0.817" stroke-miterlimit="10" stroke-linecap="round" stroke-linejoin="round"/>
<path d="M35.8242 147.783L43.5129 164.328L123.718 126.831L114.927 110.287L35.8242 147.783Z" fill="#333333" stroke="#333333" stroke-width="0.817" stroke-miterlimit="10" stroke-linecap="round" stroke-linejoin="round"/>
<path d="M47.4071 156.874C47.4071 156.874 91.8601 154.406 102.847 156.61C113.834 158.814 109.443 181.98 100.651 199.621H86.3667C86.3667 199.621 91.8601 179.766 91.8601 175.358C91.8601 170.95 61.0951 176.465 61.0951 176.465L45.7176 233.818L28.1348 232.711L47.4071 156.874Z" fill="white" stroke="#333333" stroke-width="0.817" stroke-miterlimit="10" stroke-linecap="round" stroke-linejoin="round"/>
<path d="M29.2383 244.847L31.5449 232.923L40.8321 233.817C40.8321 233.817 38.0297 239.332 43.5231 241.536C49.0165 243.74 51.2118 244.847 51.2118 244.847H29.2383Z" fill="white" stroke="#333333" stroke-width="0.817" stroke-miterlimit="10" stroke-linecap="round" stroke-linejoin="round"/>
<path d="M156.87 87.9631H107.035V97.7741H156.87V87.9631Z" stroke="#333333" stroke-width="0.9659" stroke-miterlimit="10" stroke-linecap="round" stroke-linejoin="round"/>
<path d="M88.1862 199.621L86.3652 211.758H107.236C107.236 211.758 94.317 206.243 95.8345 199.621H88.1862Z" fill="white" stroke="#333333" stroke-width="0.817" stroke-miterlimit="10" stroke-linecap="round" stroke-linejoin="round"/>
<path d="M25.9387 167.639C25.9387 167.639 29.2368 174.261 43.5216 164.328L35.8329 147.783C35.8329 147.783 31.7053 149.307 28.1442 151.094C23.7535 153.298 20.2531 156.203 22.6508 161.017C25.9387 167.639 25.9387 167.639 25.9387 167.639Z" fill="white" stroke="#333333" stroke-width="0.817" stroke-miterlimit="10" stroke-linecap="round" stroke-linejoin="round"/>
<path d="M134.704 109.18L114.926 110.287L123.717 126.831L136.899 113.587L134.704 109.18Z" fill="white" stroke="#333333" stroke-width="0.817" stroke-miterlimit="10" stroke-linecap="round" stroke-linejoin="round"/>
<path d="M134.705 109.18H140.198L136.84 113.466L134.705 109.18Z" fill="#333333" stroke="#333333" stroke-width="0.817" stroke-miterlimit="10" stroke-linecap="round" stroke-linejoin="round"/>
<path d="M131.74 48.5164L204.49 244.847H231.855L157.002 48.5164H131.74Z" fill="#4F80FF"/>
<path d="M78.951 94.9307C78.951 94.9307 70.716 101.817 78.951 86.6635C87.186 71.5104 117.374 34.3182 117.374 34.3182C117.374 34.3182 118.75 39.833 128.351 39.833C137.952 39.833 139.328 28.8135 139.328 28.8135C139.328 28.8135 161.281 31.5658 169.516 34.3283C177.751 37.0908 201.08 45.3479 188.728 59.1299L220.292 60.5111L218.916 77.0455H168.14L157.163 49.4916H120.116C120.116 49.4916 84.4343 82.5502 84.4343 85.3127C84.4343 88.0752 78.951 94.9307 78.951 94.9307Z" fill="white" stroke="#333333" stroke-width="1.2993" stroke-miterlimit="10" stroke-linecap="round" stroke-linejoin="round"/>
<path d="M116.848 34.9579C116.848 34.9579 109.574 37.8626 110.727 26.447C111.881 15.0313 121.613 24.0196 123.606 30.5501C123.606 30.5501 135.21 26.0509 139.327 28.8134C143.445 31.5759 136.475 39.4774 130.354 39.6501C124.233 39.8329 119.084 38.3602 116.848 34.9579Z" fill="white" stroke="#333333" stroke-width="1.2993" stroke-miterlimit="10" stroke-linecap="round" stroke-linejoin="round"/>
<path d="M110.505 24.6797C110.505 24.6797 109.129 20.5461 114.622 17.7937C125.032 12.5632 126.975 21.9273 131.092 21.9273C135.21 21.9273 143.445 13.6601 148.928 15.0414C154.411 16.4226 154.422 27.4422 159.905 27.4422C165.388 27.4422 165.176 24.2429 169.506 32.957C170.881 35.7093 165.388 31.5757 139.317 28.8234C128.341 28.8234 129.716 28.8234 125.599 30.2047C121.481 31.5859 118.74 30.2047 120.106 27.4523C121.471 24.7 118.73 24.7 118.73 26.0711C118.73 27.4422 115.988 27.4523 113.236 26.0711C110.485 24.6898 110.495 27.4523 110.495 27.4523V24.6797H110.505Z" fill="#333333" stroke="#333333" stroke-width="1.2993" stroke-miterlimit="10" stroke-linecap="round" stroke-linejoin="round"/>
<path d="M125.599 37.0706L121.481 32.937C121.481 32.937 119.013 34.8261 115.441 35.2628" stroke="#333333" stroke-width="1.2993" stroke-miterlimit="10" stroke-linecap="round" stroke-linejoin="round"/>
<path d="M95.9473 61.8108C95.9473 61.8108 103.12 63.4358 106.125 62.6538" stroke="#333333" stroke-width="1.2993" stroke-miterlimit="10" stroke-linecap="round" stroke-linejoin="round"/>
<path d="M161.281 41.2036L143.445 43.956C143.445 43.956 136.586 45.3372 132.469 45.3372C128.351 45.3372 123.728 46.7185 123.981 49.4708" stroke="#333333" stroke-width="1.2993" stroke-miterlimit="10" stroke-linecap="round" stroke-linejoin="round"/>
<path d="M219.564 69.2248C219.564 69.2248 224.41 70.1388 227.152 67.3865C229.893 64.6342 244.987 77.0248 244.987 77.0248L218.957 76.517L219.564 69.2248Z" stroke="#333333" stroke-width="1.2993" stroke-miterlimit="10" stroke-linecap="round" stroke-linejoin="round"/>
<path d="M221.656 75.6436L222.203 69.3467" stroke="#333333" stroke-width="1.2993" stroke-miterlimit="10" stroke-linecap="round" stroke-linejoin="round"/>
<path d="M157.162 49.4709C157.162 49.4709 170.88 49.4709 172.256 42.585C173.632 35.6991 164.709 33.0178 164.709 33.0178" stroke="#333333" stroke-width="1.2993" stroke-miterlimit="10" stroke-linecap="round" stroke-linejoin="round"/>
<path d="M165.398 59.1194H190.103" stroke="#333333" stroke-width="1.2993" stroke-miterlimit="10" stroke-linecap="round" stroke-linejoin="round"/>
<path d="M46.8116 158.813L77.5766 156.609C77.5766 156.609 78.6793 151.094 79.7719 147.783C80.8746 144.472 81.9672 138.958 81.9672 138.958C81.9672 138.958 87.4606 151.094 94.0567 155.502C100.653 159.91 107.239 153.298 108.342 152.191C109.444 151.084 122.626 138.958 122.626 138.958L114.938 130.132L99.5602 144.472C99.5602 144.472 94.0668 121.306 76.484 115.791C58.9011 110.276 42.4209 120.199 35.8349 132.336C29.2489 144.472 45.719 146.676 51.2124 144.472L46.8116 158.813Z" fill="white" stroke="#333333" stroke-width="1.0402" stroke-miterlimit="10" stroke-linecap="round" stroke-linejoin="round"/>
<path d="M69.027 113.841L68.6628 112.226C68.6628 112.226 64.7172 109.708 66.781 107.544C68.8449 105.381 69.5631 108.621 69.5631 108.621L70.3725 108.438C70.3725 108.438 70.1904 107.626 70.6355 105.828C71.0807 104.03 74.49 104.112 75.4713 104.741C76.4628 105.371 78.8806 104.833 79.5079 103.837C80.1351 102.842 86.1445 110.855 73.4176 114.552" fill="white"/>
<path d="M69.027 113.841L68.6628 112.226C68.6628 112.226 64.7172 109.708 66.781 107.544C68.8449 105.381 69.5631 108.621 69.5631 108.621L70.3725 108.438C70.3725 108.438 70.1904 107.626 70.6355 105.828C71.0807 104.03 74.49 104.112 75.4713 104.741C76.4628 105.371 78.8806 104.833 79.5079 103.837C80.1351 102.842 86.1445 110.855 73.4176 114.552" stroke="#333333" stroke-width="0.817" stroke-miterlimit="10" stroke-linecap="round" stroke-linejoin="round"/>
<path d="M68.6721 112.216C68.6721 112.216 61.6815 111.231 62.6628 104.213C63.6441 97.1954 66.9624 100.699 67.8527 97.104C68.7429 93.4985 81.3889 93.2243 80.9437 102.67C80.4986 112.115 68.6721 112.216 68.6721 112.216Z" fill="#333333" stroke="#333333" stroke-width="0.817" stroke-miterlimit="10" stroke-linecap="round" stroke-linejoin="round"/>
<path d="M244.501 244.847H14.6895" stroke="#333333" stroke-width="1.0402" stroke-miterlimit="10" stroke-linecap="round" stroke-linejoin="round"/>
<path d="M72.0815 211.758L71.7578 244.847H128.543L128.108 211.758H72.0815Z" fill="white" stroke="#333333" stroke-width="1.0402" stroke-miterlimit="10" stroke-linecap="round" stroke-linejoin="round"/>
<path d="M100.652 244.288V211.758" stroke="#333333" stroke-width="1.2633" stroke-miterlimit="10" stroke-linecap="round" stroke-linejoin="round"/>
<path d="M137.73 172.819L136.961 176.15" stroke="#333333" stroke-width="1.0545" stroke-miterlimit="10" stroke-linecap="round" stroke-linejoin="round"/>
<path d="M143.344 177.115L140.188 178.415" stroke="#333333" stroke-width="1.0545" stroke-miterlimit="10" stroke-linecap="round" stroke-linejoin="round"/>
<path d="M84.5566 144.859L96.2819 135.048" stroke="#333333" stroke-width="1.0402" stroke-miterlimit="10" stroke-linecap="round" stroke-linejoin="round"/>
<path d="M169.475 228.16C168.918 228.16 168.463 227.703 168.463 227.145V186.52C168.463 185.961 168.918 185.504 169.475 185.504C170.031 185.504 170.486 185.961 170.486 186.52V227.145C170.486 227.703 170.031 228.16 169.475 228.16Z" fill="#4F80FF"/>
<path d="M181.848 92.1984C186.147 88.9586 192.258 89.832 195.485 94.1484C198.712 98.4648 197.842 104.599 193.543 107.839L181.848 92.1984Z" stroke="#333333" stroke-miterlimit="10" stroke-linecap="round" stroke-linejoin="round"/>
<path d="M184.659 104.873C185.916 104.873 186.935 103.85 186.935 102.588C186.935 101.326 185.916 100.303 184.659 100.303C183.402 100.303 182.383 101.326 182.383 102.588C182.383 103.85 183.402 104.873 184.659 104.873Z" fill="#4F80FF"/>
<path d="M43.3008 111.597L46.2751 114.583" stroke="#333333" stroke-width="0.5906" stroke-miterlimit="10" stroke-linecap="round" stroke-linejoin="round"/>
<path d="M46.3435 111.546L43.3691 114.532" stroke="#333333" stroke-width="0.5906" stroke-miterlimit="10" stroke-linecap="round" stroke-linejoin="round"/>
</svg>
