<svg width="260" height="260" viewBox="0 0 260 260" fill="none" xmlns="http://www.w3.org/2000/svg">
<path d="M147.026 18.4253H101.268V123.858H147.026V18.4253Z" fill="#4F80FF"/>
<path d="M161.969 210.866H45.627V19.4487H161.969V158.344L158.429 165.223L161.969 170.576V210.866Z" stroke="#333333" stroke-width="0.9793" stroke-miterlimit="10"/>
<path d="M93.6001 70.3741C93.6001 70.3741 83.8374 66.6686 87.4997 56.7906C91.1619 46.9127 94.8242 53.0851 97.2623 48.1513C99.7005 43.2072 118.012 46.9127 114.349 60.4961C110.687 74.0796 93.6001 70.3741 93.6001 70.3741Z" fill="#333333" stroke="#333333" stroke-width="1.2063" stroke-miterlimit="10" stroke-linecap="round" stroke-linejoin="round"/>
<path d="M55.7719 135.824V130.88C55.7719 130.88 39.9089 133.347 38.6847 118.535C37.4606 103.723 50.8855 87.6628 65.5345 79.0235C72.8591 75.3179 85.0598 74.0794 85.0598 74.0794L105.243 80.5282C107.226 81.1628 109.057 82.2069 110.625 83.5888L127.773 98.7794C127.773 98.7794 130.211 101.246 132.659 98.7794C135.775 95.6266 141.198 91.3683 141.198 91.3683C141.198 91.3683 136.311 83.9573 144.86 79.0235C144.86 79.0235 147.298 69.1455 152.184 69.1455C157.071 69.1455 157.071 72.851 157.071 72.851C157.071 72.851 160.733 69.1455 163.171 75.318C163.171 75.318 166.833 72.851 168.058 79.0235C168.058 79.0235 172.944 76.5565 171.72 86.4345C170.496 96.3124 161.957 95.0738 161.957 95.0738C161.957 95.0738 161.957 98.7794 157.071 101.246C157.071 101.246 142.422 130.88 125.345 123.469C119.244 119.764 109.482 109.886 109.482 109.886C109.482 109.886 108.258 128.403 103.381 133.347C103.381 133.347 126.569 123.469 137.556 135.814C148.542 148.159 160.743 190.148 160.743 190.148L180.268 201.264C180.268 201.264 168.563 217.52 141.218 217.315L120.468 160.514C120.468 160.514 116.806 156.808 111.93 159.275C107.043 161.742 94.8427 165.448 88.7423 165.448C88.7423 165.448 84.5945 186.801 76.5011 196.013C66.3843 207.273 45.1392 222.627 45.1392 222.627C45.1392 222.627 38.4723 244.123 36.0342 244.123C33.596 244.123 13.7773 210.344 13.7773 209.32C13.7773 208.297 13.7773 208.297 27.9408 198.06C36.5299 197.272 53.3439 172.849 57.0061 165.448C59.6466 160.115 58.1797 155.508 57.6233 153.205C57.0061 150.636 57.0466 150.779 56.7026 149.571C54.5478 141.997 55.7719 135.824 55.7719 135.824Z" fill="white" stroke="#333333" stroke-width="1.2063" stroke-miterlimit="10" stroke-linecap="round" stroke-linejoin="round"/>
<path d="M61.8732 108.657C61.8732 108.657 52.6366 92.392 49.3184 92.4944" stroke="#333333" stroke-width="1.2063" stroke-miterlimit="10" stroke-linecap="round" stroke-linejoin="round"/>
<path d="M54.5488 108.658C54.5488 108.658 67.9737 111.124 74.0741 104.952C80.1745 98.7796 85.0609 91.3685 86.2749 101.247C86.2749 106.191 82.6126 106.191 82.6126 106.191C82.6126 106.191 87.499 107.429 88.713 106.191C89.9372 104.952 88.713 104.952 87.4889 104.952C86.2648 104.952 86.2648 101.247 92.3753 102.485C98.4757 103.724 96.0375 109.896 89.9372 111.124" stroke="#333333" stroke-width="1.2063" stroke-miterlimit="10" stroke-linecap="round" stroke-linejoin="round"/>
<path d="M88.7227 117.297C88.7227 117.297 97.4433 116.642 94.297 108.944" stroke="#333333" stroke-width="1.2063" stroke-miterlimit="10" stroke-linecap="round" stroke-linejoin="round"/>
<path d="M86.2852 122.241C86.2852 122.241 95.5015 124.902 93.3365 115.546" stroke="#333333" stroke-width="1.2063" stroke-miterlimit="10" stroke-linecap="round" stroke-linejoin="round"/>
<path d="M99.7106 75.3184C99.7106 75.3184 98.4864 76.557 100.935 77.7853C103.373 79.0239 107.035 81.4908 107.035 81.4908C107.035 81.4908 102.149 83.9578 92.3861 81.4908C82.6234 79.0239 85.0615 74.0798 85.0615 74.0798C85.0615 74.0798 91.1619 74.0798 93.6001 72.8412V70.3743C93.6001 70.3743 88.7137 65.4302 92.3759 62.9633C96.0382 60.4963 96.0382 65.4302 96.0382 65.4302H97.2623C97.2623 65.4302 97.2623 64.1916 98.4864 61.7247C99.7106 59.2578 104.587 60.4861 105.811 61.7247C107.035 62.9633 110.697 62.9633 111.911 61.7247C113.125 60.4963 119.236 74.0798 99.7106 75.3184Z" fill="white" stroke="#333333" stroke-width="1.2063" stroke-miterlimit="10" stroke-linecap="round" stroke-linejoin="round"/>
<path d="M55.7734 130.88C55.7734 130.88 91.1618 132.119 92.3859 122.241" stroke="#333333" stroke-width="1.2063" stroke-miterlimit="10" stroke-linecap="round" stroke-linejoin="round"/>
<path d="M55.7734 135.824C55.7734 135.824 97.6061 137.677 104.142 133.05" stroke="#333333" stroke-width="1.2063" stroke-miterlimit="10" stroke-linecap="round" stroke-linejoin="round"/>
<path d="M135.33 201.244C135.33 201.244 159.216 197.446 160.46 189.882" stroke="#333333" stroke-width="1.2063" stroke-miterlimit="10" stroke-linecap="round" stroke-linejoin="round"/>
<path d="M27.9219 198.071C27.9219 198.071 34.1335 218.932 45.1203 222.638" stroke="#333333" stroke-width="1.2063" stroke-miterlimit="10" stroke-linecap="round" stroke-linejoin="round"/>
<path d="M118.012 117.297C118.012 117.297 117.931 106.017 130.213 100.008" stroke="#333333" stroke-width="1.2063" stroke-miterlimit="10" stroke-linecap="round" stroke-linejoin="round"/>
<path d="M143.811 79.6888C143.811 79.6888 152.177 76.5463 155.839 82.7187C159.502 88.8912 148.515 86.4243 148.515 86.4243" stroke="#333333" stroke-width="1.2063" stroke-miterlimit="10" stroke-linecap="round" stroke-linejoin="round"/>
<path d="M152.177 92.6069C152.177 92.6069 149.294 87.4069 151.348 86.9258" stroke="#333333" stroke-width="1.2063" stroke-miterlimit="10" stroke-linecap="round" stroke-linejoin="round"/>
<path d="M148.523 75.3181C148.523 75.3181 147.522 77.5496 148.635 78.9008" stroke="#333333" stroke-width="1.2063" stroke-miterlimit="10" stroke-linecap="round" stroke-linejoin="round"/>
<path d="M154.746 81.2755C154.746 81.2755 157.923 73.6188 155.657 70.1487" stroke="#333333" stroke-width="1.2063" stroke-miterlimit="10" stroke-linecap="round" stroke-linejoin="round"/>
<path d="M157.062 85.1962C157.062 85.1962 163.163 88.9017 162.819 74.53" stroke="#333333" stroke-width="1.2063" stroke-miterlimit="10" stroke-linecap="round" stroke-linejoin="round"/>
<path d="M158.285 86.4244C158.285 86.4244 157.061 95.0638 161.947 92.5969C166.833 90.13 168.047 79.0134 168.047 79.0134" stroke="#333333" stroke-width="1.2063" stroke-miterlimit="10" stroke-linecap="round" stroke-linejoin="round"/>
<path d="M161.939 92.6074C161.939 92.6074 160.715 95.0743 163.163 95.0743" stroke="#333333" stroke-width="1.2063" stroke-miterlimit="10" stroke-linecap="round" stroke-linejoin="round"/>
<path d="M63.0977 108.658V87.6631H89.9475V101.247" fill="#333333"/>
<path d="M63.0977 108.658V87.6631H89.9475V101.247" stroke="#333333" stroke-width="1.2063" stroke-miterlimit="10" stroke-linecap="round" stroke-linejoin="round"/>
<path d="M58.2109 155.581C58.2109 155.581 61.8732 170.403 88.723 165.458L58.2109 155.581Z" fill="white"/>
<path d="M58.2109 155.581C58.2109 155.581 61.8732 170.403 88.723 165.458" stroke="#333333" stroke-width="1.2063" stroke-miterlimit="10" stroke-linecap="round" stroke-linejoin="round"/>
<path d="M59.8008 139.991C59.8716 143.031 60.4988 146.102 61.8444 148.876L63.0786 148.262C61.8444 145.702 61.2374 142.836 61.1767 139.96L59.8008 139.991Z" fill="#333333"/>
<path d="M59.9206 136.776L61.2863 136.94C61.2155 137.503 61.1852 138.087 61.1649 138.66L59.7891 138.619C59.8194 138.005 59.8498 137.391 59.9206 136.776Z" fill="#333333"/>
<path d="M62.4902 150.094L63.6739 149.388C63.9369 149.889 64.2809 150.34 64.6147 150.8L63.5221 151.64C63.1478 151.138 62.7735 150.647 62.4902 150.094Z" fill="#333333"/>
<path d="M66.791 154.946C69.2393 156.799 72.1124 157.955 75.026 158.631L75.3295 157.28C72.5474 156.635 69.8665 155.54 67.6105 153.84L66.791 154.946Z" fill="#333333"/>
<path d="M64.4238 152.755L65.4456 151.824L66.0122 152.458C66.2145 152.653 66.4269 152.837 66.6394 153.021L65.7289 154.055C65.5063 153.85 65.2635 153.646 65.0511 153.441L64.4238 152.755Z" fill="#333333"/>
<path d="M76.3418 158.907L76.5846 157.536C77.141 157.669 77.7076 157.74 78.2842 157.792L78.1122 159.173C77.5255 159.122 76.9286 159.04 76.3418 158.907Z" fill="#333333"/>
<path d="M82.6426 159.471C84.1297 159.501 85.6068 159.399 87.0939 159.338C88.5609 159.174 90.048 159.082 91.5048 158.846L91.3126 157.475C89.876 157.71 88.4293 157.792 86.9928 157.956C85.5461 158.017 84.0994 158.12 82.6628 158.089L82.6426 159.471Z" fill="#333333"/>
<path d="M79.5078 159.328L79.6292 157.946C80.1958 158.028 80.7825 158.017 81.3491 158.048L81.2884 159.44C80.7016 159.41 80.1047 159.42 79.5078 159.328Z" fill="#333333"/>
<path d="M92.8101 158.642L92.5977 157.27L94.3175 156.994L94.5603 158.355L92.8101 158.642Z" fill="#333333"/>
<path d="M98.9617 157.443C101.825 156.747 104.688 156.021 107.5 155.13L107.106 153.799C104.324 154.68 101.491 155.406 98.6582 156.082L98.9617 157.443Z" fill="#333333"/>
<path d="M95.917 158.088L95.6641 156.727L97.3738 156.369L97.6571 157.73L95.917 158.088Z" fill="#333333"/>
<path d="M108.766 154.751L108.361 153.42C108.918 153.246 109.484 153.093 110.031 152.898L110.455 154.219C109.899 154.424 109.322 154.577 108.766 154.751Z" fill="#333333"/>
<path d="M114.684 152.755C116.08 152.295 117.446 151.732 118.822 151.22L120.825 150.452L121.746 150.104L122.727 149.992L122.767 148.579L121.574 148.702C121.189 148.825 120.815 148.968 120.441 149.111L118.336 149.91C116.96 150.411 115.615 150.985 114.219 151.435L114.684 152.755Z" fill="#333333"/>
<path d="M111.749 153.779L111.324 152.458L112.983 151.885L113.428 153.195L111.749 153.779Z" fill="#333333"/>
<path d="M123.91 150.145L124.214 148.763C124.517 148.855 124.841 148.916 125.134 149.049L125.994 149.479L125.377 150.738L124.669 150.38C124.426 150.267 124.153 150.216 123.91 150.145Z" fill="#333333"/>
<path d="M128.129 153.717C129.606 156.143 130.618 158.928 131.508 161.712L132.813 161.292C131.913 158.447 130.891 155.601 129.292 152.97L128.129 153.717Z" fill="#333333"/>
<path d="M126.35 151.496L127.189 150.391L127.887 151.066L128.494 151.824L127.402 152.673L126.916 152.049L126.35 151.496Z" fill="#333333"/>
<path d="M131.883 162.971L133.198 162.572L133.704 164.291L132.379 164.67L131.883 162.971Z" fill="#333333"/>
<path d="M133.551 169.011L135.766 177.619L137.092 177.261L134.886 168.652L133.551 169.011Z" fill="#333333"/>
<path d="M132.752 166.001L134.067 165.632L134.532 167.352L133.207 167.71L132.752 166.001Z" fill="#333333"/>
<path d="M136.1 178.909L137.425 178.541L137.89 180.25L136.575 180.629L136.1 178.909Z" fill="#333333"/>
<path d="M137.883 184.969C138.793 187.804 139.835 190.619 141.161 193.332L142.385 192.708C141.11 190.097 140.088 187.344 139.188 184.539L137.883 184.969Z" fill="#333333"/>
<path d="M136.961 181.97L138.276 181.581L138.782 183.27L137.477 183.679L136.961 181.97Z" fill="#333333"/>
<path d="M141.777 194.53L142.981 193.864C143.244 194.386 143.548 194.878 143.851 195.359L142.688 196.096C142.364 195.584 142.05 195.062 141.777 194.53Z" fill="#333333"/>
<path d="M139.205 246.181L138.699 218.543H184.73V175.551H221.151" stroke="#333333" stroke-width="1.3639" stroke-miterlimit="10" stroke-linecap="round" stroke-linejoin="round"/>
<path d="M230.256 175.551H236.326V145.866" stroke="#333333" stroke-width="1.3639" stroke-miterlimit="10" stroke-linecap="round" stroke-linejoin="round"/>
<path d="M236.326 137.677V125.394H246.443" stroke="#333333" stroke-width="1.3639" stroke-miterlimit="10" stroke-linecap="round" stroke-linejoin="round"/>
<path d="M180.483 220.765L156.951 227.152L174.18 244.574L180.483 220.765Z" fill="#4F80FF"/>
<path d="M106.217 237.214L95.4626 224.173L89.6758 240.111L106.217 237.214Z" fill="#4F80FF"/>
<path d="M75.5605 212.658L80.0119 217.162" stroke="#333333" stroke-width="0.8837" stroke-miterlimit="10" stroke-linecap="round" stroke-linejoin="round"/>
<path d="M192.228 193.229L191.58 196.054" stroke="#333333" stroke-width="0.8837" stroke-miterlimit="10" stroke-linecap="round" stroke-linejoin="round"/>
<path d="M80.1135 212.586L75.6621 217.08" stroke="#333333" stroke-width="0.8837" stroke-miterlimit="10" stroke-linecap="round" stroke-linejoin="round"/>
<path d="M196.932 196.863L194.281 197.958" stroke="#333333" stroke-width="0.8837" stroke-miterlimit="10" stroke-linecap="round" stroke-linejoin="round"/>
<path d="M196.842 122.343C201.141 119.078 207.252 119.958 210.479 124.309C213.706 128.659 212.836 134.842 208.537 138.107L196.842 122.343Z" stroke="#333333" stroke-miterlimit="10" stroke-linecap="round" stroke-linejoin="round"/>
<path d="M199.653 135.118C200.91 135.118 201.929 134.087 201.929 132.815C201.929 131.543 200.91 130.512 199.653 130.512C198.396 130.512 197.377 131.543 197.377 132.815C197.377 134.087 198.396 135.118 199.653 135.118Z" fill="#4F80FF"/>
<path d="M197.377 74.8983L176.486 53.2283H218.279L197.377 74.8983Z" fill="#4F80FF"/>
<path d="M207.493 13.3071H187.26V59.3701H207.493V13.3071Z" fill="#4F80FF"/>
<path d="M152.863 150.012L155.827 153.021" stroke="#333333" stroke-width="0.5906" stroke-miterlimit="10" stroke-linecap="round" stroke-linejoin="round"/>
<path d="M155.898 149.96L152.934 152.97" stroke="#333333" stroke-width="0.5906" stroke-miterlimit="10" stroke-linecap="round" stroke-linejoin="round"/>
<path d="M55.2363 36.3386H88.6215" stroke="#333333" stroke-width="0.9793" stroke-miterlimit="10"/>
<path d="M93.6797 36.3386H100.256" stroke="#333333" stroke-width="0.9793" stroke-miterlimit="10"/>
<path d="M55.2363 45.5513H67.3764" stroke="#333333" stroke-width="0.9793" stroke-miterlimit="10"/>
<path d="M72.4355 45.5513H97.2215" stroke="#333333" stroke-width="0.9793" stroke-miterlimit="10"/>
<path d="M55.2363 53.7402H98.7383" stroke="#333333" stroke-width="0.9793" stroke-miterlimit="10"/>
<path d="M55.2363 62.9526H63.3297" stroke="#333333" stroke-width="0.9793" stroke-miterlimit="10"/>
<path d="M67.377 62.9526H86.0929" stroke="#333333" stroke-width="0.9793" stroke-miterlimit="10"/>
<path d="M42.5918 88.0314C42.0353 88.0314 41.5801 87.5708 41.5801 87.0078V46.0629C41.5801 45.4999 42.0353 45.0393 42.5918 45.0393C43.1482 45.0393 43.6034 45.4999 43.6034 46.0629V87.0078C43.6034 87.5708 43.1583 88.0314 42.5918 88.0314Z" fill="#4F80FF"/>
</svg>
