<svg width="260" height="260" viewBox="0 0 260 260" fill="none" xmlns="http://www.w3.org/2000/svg">
<g clip-path="url(#clip0_1235_17813)">
<path d="M88.75 128.92C115.398 128.92 137 107.318 137 80.6699C137 54.0222 115.398 32.4199 88.75 32.4199C62.1023 32.4199 40.5 54.0222 40.5 80.6699C40.5 107.318 62.1023 128.92 88.75 128.92Z" fill="#4F80FF"/>
<path d="M151.981 125.76L149.381 121.86C149.381 121.86 146.781 140.06 149.381 146.57H123.371C123.371 146.57 111.671 145.27 96.0607 154.37V138.77C96.0607 138.77 88.2607 134.87 90.8607 119.27C93.4607 103.67 106.461 94.56 106.461 94.56C106.461 94.56 111.661 93.26 122.061 93.26C122.061 93.26 122.061 101.06 131.161 101.06C140.261 101.06 138.961 94.56 138.961 94.56C138.961 94.56 158.461 91.96 167.571 116.66L157.171 134.12L151.981 125.76Z" fill="white" stroke="#333333" stroke-width="1.3003" stroke-miterlimit="10" stroke-linecap="round" stroke-linejoin="round"/>
<path d="M122.07 93.2501C122.07 93.2501 122.07 101.05 131.17 101.05C140.27 101.05 138.97 94.5501 138.97 94.5501C138.97 94.5501 135.18 94.5301 135.77 91.9401C136.36 89.3501 128.56 89.3501 128.56 89.3501C128.56 89.3501 129.87 93.2501 122.07 93.2501Z" fill="white" stroke="#333333" stroke-width="1.3003" stroke-miterlimit="10" stroke-linecap="round" stroke-linejoin="round"/>
<path d="M124.669 76.3399C124.669 76.3399 123.369 65.9399 131.169 67.2399C131.169 67.2399 140.269 62.0399 145.469 72.4399C148.069 77.6399 144.169 82.8399 144.169 82.8399H124.669V76.3399Z" fill="#333333" stroke="#333333" stroke-width="1.3003" stroke-miterlimit="10" stroke-linecap="round" stroke-linejoin="round"/>
<path d="M144.18 82.85C144.18 82.85 145.48 91.95 136.38 91.95C127.28 91.95 124.68 84.15 124.68 84.15C124.68 84.15 120.78 81.55 122.08 78.95C123.38 76.35 125.98 76.35 125.98 80.25C125.98 84.15 135.08 78.95 135.08 78.95C135.08 78.95 142.88 76.34 144.18 82.85Z" fill="white" stroke="#333333" stroke-width="1.3003" stroke-miterlimit="10" stroke-linecap="round" stroke-linejoin="round"/>
<path d="M146.781 247.98H180.591L172.791 232.38L163.691 203.77C163.691 203.77 163.691 198.57 164.991 195.97C166.291 193.37 181.891 167.36 181.891 167.36C181.891 167.36 190.991 149.16 171.491 146.56C151.991 143.96 121.531 146.5 121.531 146.5C121.531 146.5 103.881 147.86 96.0807 154.36C96.0807 154.36 94.7807 163.46 101.281 167.36C107.781 171.26 124.691 180.36 127.291 188.16C129.501 194.8 146.791 241.47 146.791 241.47V247.98H146.781Z" fill="white" stroke="#333333" stroke-width="1.3003" stroke-miterlimit="10" stroke-linecap="round" stroke-linejoin="round"/>
<path d="M170.18 112.75L151.98 142.66H172.78L189.69 112.75H170.18Z" fill="white" stroke="#333333" stroke-width="1.2705" stroke-miterlimit="10" stroke-linecap="round" stroke-linejoin="round"/>
<path d="M112.969 110.15C112.969 110.15 114.269 117.95 110.369 119.25C110.369 119.25 99.9691 112.75 90.8691 119.25" stroke="#333333" stroke-width="1.3003" stroke-miterlimit="10" stroke-linecap="round" stroke-linejoin="round"/>
<path d="M96.0703 138.76C96.0703 138.76 102.57 146.56 127.28 130.96C127.28 130.96 136.38 129.66 136.38 124.46C136.38 123.16 135.08 120.56 133.78 120.56C132.48 120.56 135.08 115.36 138.98 120.56" stroke="#333333" stroke-width="1.3003" stroke-miterlimit="10" stroke-linecap="round" stroke-linejoin="round"/>
<path d="M133.779 112.75C133.779 112.75 145.479 112.75 144.179 120.55C144.179 120.55 144.129 125.28 136.359 124.86" stroke="#333333" stroke-width="1.3003" stroke-miterlimit="10" stroke-linecap="round" stroke-linejoin="round"/>
<path d="M136.381 108.85C136.381 108.85 141.581 106.25 145.481 111.45C149.381 116.65 146.781 123.15 144.181 121.85" stroke="#333333" stroke-width="1.3003" stroke-miterlimit="10" stroke-linecap="round" stroke-linejoin="round"/>
<path d="M110.369 119.25L133.779 106.25C133.779 106.25 143.239 99.1199 148.079 102.35C151.979 104.95 142.879 108.85 142.879 108.85" stroke="#333333" stroke-width="1.3003" stroke-miterlimit="10" stroke-linecap="round" stroke-linejoin="round"/>
<path d="M151.98 125.76C151.98 125.76 155.27 115.04 167.28 115.85" stroke="#333333" stroke-width="1.3003" stroke-miterlimit="10" stroke-linecap="round" stroke-linejoin="round"/>
<path d="M132.48 153.06L145.48 164.76C145.48 164.76 154.33 172.61 155.88 180.36C157.18 186.86 172.78 232.37 172.78 232.37C172.78 232.37 157.18 231.52 146.77 241.04" stroke="#333333" stroke-width="1.3003" stroke-miterlimit="10" stroke-linecap="round" stroke-linejoin="round"/>
<path d="M137.68 82.8501C137.68 82.8501 136.38 85.4501 137.68 86.7501C138.98 88.0501 136.38 89.3501 135.08 86.7501" stroke="#333333" stroke-width="1.3003" stroke-miterlimit="10" stroke-linecap="round" stroke-linejoin="round"/>
<path d="M117.519 177.77H90.8691V168.67H103.219" stroke="#333333" stroke-width="1.3003" stroke-miterlimit="10"/>
<path d="M92.1484 247.98L96.8284 177.77" stroke="#333333" stroke-width="1.3003" stroke-miterlimit="10"/>
<path d="M126.209 247.98L119.469 178.82" stroke="#333333" stroke-width="1.3003" stroke-miterlimit="10"/>
<path d="M95.1992 202.3L132.479 202.47" stroke="#333333" stroke-width="1.3003" stroke-miterlimit="10"/>
<path d="M19.0996 247.98H250" stroke="#333333" stroke-width="1.3489" stroke-miterlimit="10"/>
<path d="M21.9297 90.68C24.9673 90.68 27.4297 88.3921 27.4297 85.57C27.4297 82.7478 24.9673 80.46 21.9297 80.46C18.8921 80.46 16.4297 82.7478 16.4297 85.57C16.4297 88.3921 18.8921 90.68 21.9297 90.68Z" stroke="#333333" stroke-width="1.3489" stroke-miterlimit="10"/>
<path d="M69.5093 183.22C72.6739 183.22 75.2393 180.834 75.2393 177.89C75.2393 174.946 72.6739 172.56 69.5093 172.56C66.3447 172.56 63.7793 174.946 63.7793 177.89C63.7793 180.834 66.3447 183.22 69.5093 183.22Z" stroke="#333333" stroke-width="1.3489" stroke-miterlimit="10"/>
<path d="M58.3101 222.64C63.2696 222.64 67.2901 218.902 67.2901 214.29C67.2901 209.678 63.2696 205.94 58.3101 205.94C53.3506 205.94 49.3301 209.678 49.3301 214.29C49.3301 218.902 53.3506 222.64 58.3101 222.64Z" stroke="#333333" stroke-width="1.3489" stroke-miterlimit="10"/>
<path d="M61.0792 17.8298L21.1992 80.4998" stroke="#333333" stroke-width="1.3489" stroke-miterlimit="10"/>
<path d="M63.8798 21.73L26.0898 82.85" stroke="#333333" stroke-width="1.3489" stroke-miterlimit="10"/>
<path d="M21.1992 90.6299L65.2792 173.87" stroke="#333333" stroke-width="1.3489" stroke-miterlimit="10"/>
<path d="M26.6094 88.26L73.1894 173.81" stroke="#333333" stroke-width="1.3489" stroke-miterlimit="10"/>
<path d="M63.7798 177.89L40.0898 234.98" stroke="#333333" stroke-width="1.3489" stroke-miterlimit="10"/>
<path d="M74.6809 180.19L63.8809 237.58" stroke="#333333" stroke-width="1.3489" stroke-miterlimit="10"/>
<path d="M84.17 248.63C78.26 241.03 63.33 234.33 45.69 234.33C28.59 234.33 15.6 240.83 10 248.63H84.17Z" fill="#333333"/>
<path d="M80.34 37.5898C81 39.2798 78.89 41.5398 75.62 42.6498C72.35 43.7598 69.17 43.2898 68.5 41.5998" fill="white"/>
<path d="M80.34 37.5898C81 39.2798 78.89 41.5398 75.62 42.6498C72.35 43.7598 69.17 43.2898 68.5 41.5998" stroke="#333333" stroke-width="1.0117" stroke-miterlimit="10"/>
<path d="M64.5803 27.5799L60.3803 18.4799C60.3803 18.4799 58.9802 13.2799 63.1802 11.9799C67.3802 10.6799 70.1802 14.5799 70.1802 14.5799L74.3802 23.6799L64.5803 27.5799Z" fill="#333333"/>
<path d="M74.3506 39.73L94.3006 32.75C90.5006 25.32 83.4806 29.79 79.6006 26.04C75.7206 22.29 73.7006 24.09 73.7006 24.09L68.6806 25.85L68.7406 25.83L63.7606 27.68C63.7606 27.68 60.9606 27.62 60.8306 32.82C60.7006 38.02 52.2706 39.13 54.8706 47L74.6606 39.63L74.3506 39.73Z" fill="#333333"/>
<path d="M159.781 162.16L152.631 173.09" stroke="#333333" stroke-width="1.3003" stroke-miterlimit="10" stroke-linecap="round" stroke-linejoin="round"/>
<path d="M101.961 156.36C102.861 158.91 104.561 160.91 106.301 162.75L107.111 161.97C105.421 160.2 103.801 158.24 103.031 156.01L101.961 156.36Z" fill="#333333"/>
<path d="M101.781 153.48L102.881 153.68C102.791 153.89 102.801 154.13 102.761 154.35L102.791 155.01L101.671 155.15L101.641 154.3C101.681 154.03 101.681 153.75 101.781 153.48Z" fill="#333333"/>
<path d="M107.1 163.57L107.89 162.77C108.23 163.13 108.61 163.46 108.98 163.79L108.22 164.62C107.83 164.27 107.45 163.95 107.1 163.57Z" fill="#333333"/>
<path d="M111.15 167.11C112.13 167.91 113.12 168.7 114.16 169.42C115.19 170.15 116.19 170.93 117.25 171.61L117.88 170.68C116.82 170.01 115.84 169.23 114.82 168.52C113.79 167.81 112.82 167.03 111.85 166.24L111.15 167.11Z" fill="#333333"/>
<path d="M109.102 165.41L109.842 164.57C110.212 164.9 110.572 165.24 110.972 165.55L110.252 166.41C109.852 166.1 109.482 165.74 109.102 165.41Z" fill="#333333"/>
<path d="M118.191 172.24L118.821 171.31L120.071 172.13L119.451 173.08L118.191 172.24Z" fill="#333333"/>
<path d="M122.701 175.12C123.761 175.78 124.881 176.44 125.891 177.09C126.841 177.73 127.651 178.66 128.391 179.63L129.291 178.95C128.511 177.93 127.651 176.92 126.511 176.15C125.411 175.44 124.371 174.83 123.291 174.16L122.701 175.12Z" fill="#333333"/>
<path d="M120.441 173.73L121.051 172.78C121.471 173.06 121.901 173.31 122.331 173.57L121.731 174.52C121.301 174.26 120.861 174.01 120.441 173.73Z" fill="#333333"/>
<path d="M129.021 180.53L129.951 179.89C130.251 180.31 130.511 180.74 130.791 181.18L129.831 181.77C129.571 181.35 129.311 180.93 129.021 180.53Z" fill="#333333"/>
<path d="M131.701 185.06C132.851 187.27 133.911 189.54 134.921 191.83L135.951 191.38C134.931 189.07 133.871 186.78 132.701 184.54L131.701 185.06Z" fill="#333333"/>
<path d="M130.432 182.77L131.402 182.2C131.662 182.64 131.902 183.08 132.152 183.53L131.162 184.07C130.922 183.63 130.692 183.19 130.432 182.77Z" fill="#333333"/>
<path d="M135.361 192.86L136.391 192.42L136.991 193.8L135.951 194.24L135.361 192.86Z" fill="#333333"/>
<path d="M137.432 197.76C138.382 200.08 139.312 202.41 140.232 204.75L141.282 204.34C140.362 202 139.432 199.66 138.482 197.33L137.432 197.76Z" fill="#333333"/>
<path d="M136.412 195.33L137.452 194.89L138.032 196.29L136.992 196.72L136.412 195.33Z" fill="#333333"/>
<path d="M141.685 205.392L140.633 205.803L141.182 207.209L142.235 206.798L141.685 205.392Z" fill="#333333"/>
<path d="M143.608 210.382L142.562 210.783L145.261 217.824L146.307 217.423L143.608 210.382Z" fill="#333333"/>
<path d="M142.65 207.91L141.605 208.314L142.151 209.722L143.195 209.318L142.65 207.91Z" fill="#333333"/>
<path d="M146.702 218.465L145.656 218.865L146.196 220.276L147.242 219.875L146.702 218.465Z" fill="#333333"/>
<path d="M147.57 223.84L150.29 230.87L151.33 230.46L148.62 223.43L147.57 223.84Z" fill="#333333"/>
<path d="M147.661 220.967L146.605 221.371L147.146 222.781L148.201 222.377L147.661 220.967Z" fill="#333333"/>
<path d="M151.746 231.508L150.693 231.918L151.241 233.325L152.294 232.915L151.746 231.508Z" fill="#333333"/>
<path d="M43 184.92C47.6944 184.92 51.5 181.114 51.5 176.42C51.5 171.726 47.6944 167.92 43 167.92C38.3056 167.92 34.5 171.726 34.5 176.42C34.5 181.114 38.3056 184.92 43 184.92Z" stroke="#333333" stroke-width="1.2063" stroke-miterlimit="10" stroke-linecap="round" stroke-linejoin="round"/>
<path d="M192.5 137.92C199.35 132.78 209.06 134.17 214.2 141.02C219.34 147.87 217.95 157.58 211.1 162.72L192.5 137.92Z" stroke="#333333" stroke-width="1.2063" stroke-miterlimit="10" stroke-linecap="round" stroke-linejoin="round"/>
<path d="M168.5 68.52L172.9 72.92" stroke="#333333" stroke-width="0.8837" stroke-miterlimit="10" stroke-linecap="round" stroke-linejoin="round"/>
<path d="M173.82 62.54L173.18 65.29" stroke="#333333" stroke-width="0.8837" stroke-miterlimit="10" stroke-linecap="round" stroke-linejoin="round"/>
<path d="M173 68.4399L168.6 72.8399" stroke="#333333" stroke-width="0.8837" stroke-miterlimit="10" stroke-linecap="round" stroke-linejoin="round"/>
<path d="M190.58 124.19L194.98 128.59" stroke="#333333" stroke-width="0.8837" stroke-miterlimit="10" stroke-linecap="round" stroke-linejoin="round"/>
<path d="M195.079 124.12L190.689 128.51" stroke="#333333" stroke-width="0.8837" stroke-miterlimit="10" stroke-linecap="round" stroke-linejoin="round"/>
<path d="M178.47 66.0901L175.85 67.1601" stroke="#333333" stroke-width="0.8837" stroke-miterlimit="10" stroke-linecap="round" stroke-linejoin="round"/>
<path d="M217.48 93.8301H198.52L208 110.24L217.48 93.8301Z" fill="#4F80FF"/>
<path d="M192.929 212.59L192.289 215.34" stroke="#333333" stroke-width="0.8837" stroke-miterlimit="10" stroke-linecap="round" stroke-linejoin="round"/>
<path d="M197.581 216.14L194.961 217.21" stroke="#333333" stroke-width="0.8837" stroke-miterlimit="10" stroke-linecap="round" stroke-linejoin="round"/>
<path d="M184.488 128.36H174.088C172.648 128.36 171.488 127.2 171.488 125.76C171.488 124.32 172.648 123.16 174.088 123.16H184.488C185.928 123.16 187.088 124.32 187.088 125.76C187.088 127.19 185.918 128.36 184.488 128.36Z" fill="white" stroke="#333333" stroke-width="1.3003" stroke-miterlimit="10" stroke-linecap="round" stroke-linejoin="round"/>
<path d="M181.889 133.56H171.489C170.049 133.56 168.889 132.4 168.889 130.96C168.889 129.52 170.049 128.36 171.489 128.36H181.889C183.329 128.36 184.489 129.52 184.489 130.96C184.489 132.39 183.319 133.56 181.889 133.56Z" fill="white" stroke="#333333" stroke-width="1.3003" stroke-miterlimit="10" stroke-linecap="round" stroke-linejoin="round"/>
<path d="M179.289 138.76H168.889C167.449 138.76 166.289 137.6 166.289 136.16C166.289 134.72 167.449 133.56 168.889 133.56H179.289C180.729 133.56 181.889 134.72 181.889 136.16C181.889 137.59 180.719 138.76 179.289 138.76Z" fill="white" stroke="#333333" stroke-width="1.3003" stroke-miterlimit="10" stroke-linecap="round" stroke-linejoin="round"/>
</g>
<defs>
<clipPath id="clip0_1235_17813">
<rect width="240" height="238.66" fill="white" transform="translate(10 10)"/>
</clipPath>
</defs>
</svg>
