<svg width="17" height="18" viewBox="0 0 17 18" fill="none" xmlns="http://www.w3.org/2000/svg">
<path d="M7.06833 17.5421C9.16837 18.0352 11.3336 17.6807 13.1669 16.5442C16.9508 14.1994 18.1218 9.21271 15.7768 5.42835C13.92 2.43226 10.3855 1.0105 7.01312 1.83345L6.3345 0.43384C6.27993 0.322609 6.17029 0.248976 6.04652 0.241632C5.99097 0.238418 5.93547 0.248766 5.88482 0.271786C5.83416 0.294805 5.78987 0.329803 5.75576 0.37376C5.74939 0.381885 5.7437 0.390362 5.73798 0.398819L3.41575 4.02845C3.35128 4.13025 3.34411 4.2578 3.39802 4.36564C3.42432 4.4187 3.46398 4.464 3.5131 4.49708C3.56223 4.53016 3.61912 4.54988 3.67818 4.55429L7.91847 4.87695C8.04046 4.88589 8.15822 4.83019 8.22732 4.72788C8.26122 4.67811 8.2814 4.62027 8.2858 4.5602C8.2902 4.50014 8.27867 4.43998 8.25238 4.38579L7.63011 3.10415C10.3394 2.56939 13.1246 3.74808 14.6129 6.14962C16.5607 9.29185 15.5885 13.4331 12.446 15.3811C10.9236 16.3245 9.12539 16.6185 7.38175 16.2093C5.63816 15.7998 4.15825 14.7363 3.21495 13.214C2.29005 11.721 1.98837 9.95486 2.36515 8.24075C2.4464 7.87181 2.21298 7.50675 1.8437 7.42513C1.57706 7.36697 1.31187 7.47271 1.15499 7.67534C1.09306 7.75528 1.04976 7.84805 1.02827 7.94687C0.574288 10.0111 0.937394 12.1376 2.05122 13.9352C3.18691 15.7682 4.969 17.049 7.06833 17.5421L7.06833 17.5421Z" fill="#979797"/>
</svg>
