<svg width="8" height="10" viewBox="0 0 8 10" fill="none" xmlns="http://www.w3.org/2000/svg">
<path d="M3.9092 0.0758057C1.95295 0.0758057 0.368896 1.66163 0.368896 3.61612C0.368896 4.02183 0.437695 4.41166 0.562939 4.77504V4.78034L0.568223 4.79092C0.627976 4.95939 0.699901 5.12328 0.783428 5.28131L0.785195 5.28484L0.786953 5.28836C0.820479 5.3501 0.855752 5.41184 0.892803 5.47182L0.896318 5.47711L0.898086 5.48064L3.24242 9.54132C3.53877 10.0529 4.27787 10.0529 4.57246 9.54132L6.92737 5.46829L6.93796 5.45242L7.01381 5.32012C7.01733 5.31483 7.02086 5.30954 7.02263 5.30424L7.02438 5.29895L7.02615 5.29542C7.11259 5.13314 7.18844 4.96379 7.25018 4.78916L7.25547 4.77858V4.77504C7.38407 4.40219 7.44965 4.01052 7.44951 3.61612C7.44951 1.66163 5.86369 0.0758057 3.9092 0.0758057ZM3.9092 5.18957C2.97959 5.18957 2.22813 4.43636 2.22813 3.50852C2.22813 2.58068 2.98136 1.82744 3.9092 1.82744C4.83704 1.82744 5.59027 2.58066 5.59027 3.50851C5.59027 4.43636 4.83705 5.18958 3.9092 5.18958V5.18957Z" fill="#979797"/>
</svg>
