<svg width="20" height="20" viewBox="0 0 20 20" fill="none" xmlns="http://www.w3.org/2000/svg">
<path d="M14.7767 13.6183C14.8183 13.6475 14.8592 13.68 14.8958 13.7183L19.6158 18.4375C19.9333 18.755 19.9383 19.2875 19.6133 19.6125C19.5365 19.6902 19.4451 19.7519 19.3443 19.7942C19.2435 19.8364 19.1354 19.8583 19.0261 19.8586C18.9168 19.8589 18.8086 19.8377 18.7076 19.796C18.6066 19.7543 18.5148 19.6931 18.4375 19.6158L13.7175 14.8958C13.681 14.8593 13.6481 14.8194 13.6192 14.7767C12.1302 16.0015 10.2613 16.6698 8.33333 16.6667C3.73083 16.6667 0 12.9358 0 8.33333C0 3.73083 3.73083 0 8.33333 0C12.9358 0 16.6667 3.73083 16.6667 8.33333C16.6667 10.3392 15.9583 12.18 14.7767 13.6183ZM8.33333 15C10.1014 15 11.7971 14.2976 13.0474 13.0474C14.2976 11.7971 15 10.1014 15 8.33333C15 6.56522 14.2976 4.86953 13.0474 3.61929C11.7971 2.36905 10.1014 1.66667 8.33333 1.66667C6.56522 1.66667 4.86953 2.36905 3.61929 3.61929C2.36905 4.86953 1.66667 6.56522 1.66667 8.33333C1.66667 10.1014 2.36905 11.7971 3.61929 13.0474C4.86953 14.2976 6.56522 15 8.33333 15Z" fill="#DADADA"/>
</svg>
