<svg width="16" height="19" viewBox="0 0 16 19" fill="none" xmlns="http://www.w3.org/2000/svg">
<path d="M9.49995 18.5C9.36995 18.5 9.22995 18.46 9.12995 18.37L5.99995 15.87C5.85995 15.76 5.76995 15.58 5.76995 15.4V8.71002L0.259951 1.36002C0.119951 1.18002 0.0999512 0.930024 0.199951 0.730024C0.299951 0.530024 0.509951 0.400024 0.739951 0.400024H15.26C15.49 0.400024 15.7 0.530024 15.8 0.730024C15.9 0.930024 15.88 1.18002 15.74 1.36002L10.1 8.71002V17.9C10.1 18.13 9.96995 18.34 9.75995 18.44C9.67995 18.48 9.58995 18.5 9.49995 18.5ZM6.96995 15.11L8.89995 16.65V8.51002C8.89995 8.38002 8.93995 8.25002 9.01995 8.14002L14.04 1.60002H1.93995L6.84995 8.15002C6.92995 8.25002 6.96995 8.38002 6.96995 8.51002V15.11Z" fill="#979797"/>
</svg>
