<svg width="20" height="22" viewBox="0 0 20 22" fill="none" xmlns="http://www.w3.org/2000/svg">
<path d="M10.2105 11.6723C13.4282 11.6723 16.0488 9.05175 16.0488 5.83402C16.0488 2.61629 13.4282 0 10.2105 0C6.99278 0 4.3722 2.62058 4.3722 5.83831C4.3722 9.05604 6.99278 11.6723 10.2105 11.6723ZM19.2408 16.6557C18.8241 15.7622 18.2312 14.9545 17.4794 14.2542C15.9672 12.8494 13.9438 12.0418 11.9332 12.0418H8.49209C6.47725 12.0418 4.45812 12.8494 2.94591 14.2542C2.19411 14.9545 1.60125 15.7622 1.18454 16.6557C0.746343 17.5966 0.522949 18.5847 0.522949 19.6028C0.522949 20.926 1.59696 22 2.92014 22H17.5052C18.8284 22 19.9024 20.926 19.9024 19.6028C19.8981 18.5847 19.679 17.5923 19.2408 16.6557Z" fill="#D5D5D5"/>
</svg>
