<svg width="24" height="24" viewBox="0 0 24 24" fill="none" xmlns="http://www.w3.org/2000/svg">
<path d="M12.0001 -1.04907e-06C18.6171 -4.70589e-07 24 5.38291 24 11.9999C24 18.6171 18.6171 24 12.0001 24C5.38292 24 3.15014e-06 18.6171 3.72864e-06 11.9999C4.30711e-06 5.38291 5.38292 -1.62756e-06 12.0001 -1.04907e-06ZM17.9675 20.3614C17.8826 20.358 17.7977 20.3554 17.7137 20.3255C16.032 19.7297 14.3709 19.3011 13.4811 19.2326C13.0346 19.1983 12.69 18.8254 12.69 18.378L12.69 16.7957C12.69 16.5437 12.8006 16.3046 12.9926 16.1416C14.4146 14.9339 14.9211 12.264 14.9211 10.1665C14.9211 7.75543 13.7923 6.5332 11.5655 6.5332C9.44406 6.5332 8.41294 7.72114 8.41294 10.1665C8.41294 12.5486 9.46551 15.252 10.8086 16.3218C11.0126 16.4837 11.1318 16.7306 11.1318 16.992L11.1318 18.4654C11.1318 18.9 10.8069 19.2643 10.3758 19.3166C9.37971 19.4357 7.66808 20.0117 6.39864 20.5122C6.35667 20.5286 6.31284 20.5269 6.26915 20.5363C7.90808 21.6403 9.88037 22.2858 12.0001 22.2858C14.226 22.2858 16.2832 21.5675 17.9675 20.3614ZM5.23368 19.728C5.22777 19.3808 5.42919 19.0517 5.77121 18.9162C6.32827 18.6969 8.0255 18.0505 9.41752 17.7463L9.41752 17.3819C7.6312 15.6994 6.69867 12.5477 6.69867 10.1666C6.69867 6.76801 8.47204 4.81885 11.5655 4.81885C14.7402 4.81885 16.6354 6.8177 16.6354 10.1666C16.6354 11.3169 16.4684 15.0934 14.4043 17.1687L14.4043 17.628C15.6018 17.8397 17.1214 18.2983 18.2863 18.7107C18.6883 18.8528 18.9017 19.2652 18.8262 19.6731C20.9425 17.7874 22.2858 15.0514 22.2858 11.9999C22.2858 6.32829 17.6718 1.71428 12.0001 1.71428C6.32827 1.71427 1.71428 6.32829 1.71428 11.9999C1.71428 15.0806 3.08233 17.8414 5.23368 19.728Z" fill="#4F71BE"/>
</svg>
