<svg width="22" height="22" viewBox="0 0 22 22" fill="none" xmlns="http://www.w3.org/2000/svg">
<path d="M15.5 13.7H14.5438L14.2063 13.3625C15.3875 11.9937 16.0813 10.2312 16.0813 8.3C16.0813 3.9875 12.5938 0.5 8.28125 0.5C3.96875 0.5 0.518753 4.00625 0.518753 8.3C0.518753 12.5938 4.00625 16.1 8.31875 16.1C10.25 16.1 12.0313 15.3875 13.3813 14.225L13.7188 14.5625V15.5L19.7188 21.4813L21.5 19.7C21.4813 19.7 15.5 13.7 15.5 13.7ZM8.3 13.7C5.31875 13.7 2.9 11.2812 2.9 8.3C2.9 5.31875 5.31875 2.9 8.3 2.9C11.2813 2.9 13.7 5.31875 13.7 8.3C13.7 11.2812 11.2813 13.7 8.3 13.7Z" fill="#4F71BE"/>
</svg>
